Disc Title:     HOW TO TRAIN YOUR DRAGON 3D
Disc Label:     Drachenzaehmen.leichtgemacht.3D.2010.3DBD.complete.Bluray.untouched.german.ML.mvc-HDA
Disc Size:      33,787,467,204 bytes
Protection:     AACS
Extras:         BD-Java
BDInfo:         0.7.5.5

Notes:          

BDINFO HOME:
  Cinema Squid (old)
    http://www.cinemasquid.com/blu-ray/tools/bdinfo
  UniqProject GitHub (new)
   https://github.com/UniqProject/BDInfo

INCLUDES FORUMS REPORT FOR:
  AVS Forum Blu-ray Audio and Video Specifications Thread
    http://www.avsforum.com/avs-vb/showthread.php?t=1155731


********************
PLAYLIST: 01000.MPLS
********************

<--- BEGIN FORUMS PASTE --->
[code]
                                                                                                                Total   Video                                             
Title                                                           Codec   Length  Movie Size      Disc Size       Bitrate Bitrate Main Audio Track                          Secondary Audio Track
-----                                                           ------  ------- --------------  --------------  ------- ------- ------------------                        ---------------------
01000.MPLS                                                      AVC     1:37:53 26,304,989,184  33,787,467,204  35.83   22.11   DD AC3 5.1 640Kbps                        
[/code]

[code]

DISC INFO:

Disc Title:     HOW TO TRAIN YOUR DRAGON 3D
Disc Label:     Drachenzaehmen.leichtgemacht.3D.2010.3DBD.complete.Bluray.untouched.german.ML.mvc-HDA
Disc Size:      33,787,467,204 bytes
Protection:     AACS
Extras:         BD-Java
BDInfo:         0.7.5.5

PLAYLIST REPORT:

Name:                   01000.MPLS
Length:                 1:37:53.993 (h:m:s.ms)
Size:                   26,304,989,184 bytes
Total Bitrate:          35.83 Mbps

VIDEO:

Codec                   Bitrate             Description     
-----                   -------             -----------     
MPEG-4 AVC Video        22110 kbps          1080p / 23.976 fps / 16:9 / High Profile 4.1

AUDIO:

Codec                           Language        Bitrate         Description     
-----                           --------        -------         -----------     
Dolby Digital Audio             German          640 kbps        5.1 / 48 kHz /   640 kbps / DN -27dB
Dolby TrueHD Audio              English         4110 kbps       7.1 / 48 kHz /  3470 kbps / 16-bit (AC3 Embedded: 5.1 / 48 kHz /   640 kbps / DN -31dB)
Dolby Digital Audio             Spanish         640 kbps        5.1 / 48 kHz /   640 kbps / DN -27dB
Dolby Digital Audio             French          640 kbps        5.1 / 48 kHz /   640 kbps / DN -27dB
Dolby Digital Audio             Italian         640 kbps        5.1 / 48 kHz /   640 kbps / DN -27dB
Dolby Digital Audio             Korean          640 kbps        5.1 / 48 kHz /   640 kbps / DN -27dB
Dolby Digital Audio             Chinese         640 kbps        5.1 / 48 kHz /   640 kbps / DN -27dB
Dolby Digital Audio             Dutch           640 kbps        5.1 / 48 kHz /   640 kbps / DN -27dB
Dolby Digital Audio             Portuguese      640 kbps        5.1 / 48 kHz /   640 kbps / DN -27dB
Dolby Digital Audio             Russian         640 kbps        5.1 / 48 kHz /   640 kbps / DN -27dB
Dolby Digital Audio             Turkish         640 kbps        5.1 / 48 kHz /   640 kbps / DN -27dB

SUBTITLES:

Codec                           Language        Bitrate         Description     
-----                           --------        -------         -----------     
Presentation Graphics           German          0.029 kbps                      
Presentation Graphics           Spanish         0.024 kbps                      
Presentation Graphics           French          0.011 kbps                      
Presentation Graphics           Italian         0.011 kbps                      
Presentation Graphics           Korean          0.015 kbps                      
Presentation Graphics           Chinese         0.012 kbps                      
Presentation Graphics           Dutch           0.021 kbps                      
Presentation Graphics           Portuguese      0.030 kbps                      
Presentation Graphics           Russian         0.026 kbps                      
Presentation Graphics           Turkish         0.023 kbps                      

FILES:

Name            Time In         Length          Size            Total Bitrate   
----            -------         ------          ----            -------------   
00000.M2TS      0:00:00.000     1:37:52.992     26,304,872,448  35,832          
00094.M2TS      1:37:52.992     0:00:01.001     116,736         933             

CHAPTERS:

Number          Time In         Length          Avg Video Rate  Max 1-Sec Rate  Max 1-Sec Time  Max 5-Sec Rate  Max 5-Sec Time  Max 10Sec Rate  Max 10Sec Time  Avg Frame Size  Max Frame Size  Max Frame Time  
------          -------         ------          --------------  --------------  --------------  --------------  --------------  --------------  --------------  --------------  --------------  --------------  
1               0:00:00.000     0:08:38.768     21,689 kbps     32,501 kbps     00:05:42.467    28,568 kbps     00:05:42.467    26,824 kbps     00:05:36.961    113,066 bytes   472,096 bytes   00:02:28.439    
2               0:08:38.768     0:02:52.213     22,025 kbps     31,898 kbps     00:09:38.494    28,393 kbps     00:09:35.283    27,058 kbps     00:09:34.782    114,830 bytes   520,032 bytes   00:09:24.981    
3               0:11:30.981     0:03:39.052     21,445 kbps     29,426 kbps     00:12:11.522    27,394 kbps     00:12:14.984    27,041 kbps     00:12:11.313    111,807 bytes   715,273 bytes   00:15:09.325    
4               0:15:10.034     0:06:46.030     22,962 kbps     31,322 kbps     00:18:18.097    28,697 kbps     00:17:44.521    28,231 kbps     00:17:44.396    119,714 bytes   732,684 bytes   00:20:35.359    
5               0:21:56.064     0:05:44.635     22,637 kbps     32,005 kbps     00:25:56.555    28,701 kbps     00:26:55.238    27,323 kbps     00:26:41.349    118,021 bytes   699,755 bytes   00:24:52.324    
6               0:27:40.700     0:05:32.498     19,885 kbps     31,147 kbps     00:29:10.206    26,874 kbps     00:29:58.296    24,657 kbps     00:30:21.694    103,672 bytes   980,317 bytes   00:27:52.462    
7               0:33:13.199     0:05:52.935     22,813 kbps     33,764 kbps     00:37:00.760    28,412 kbps     00:37:16.859    27,305 kbps     00:38:09.161    118,939 bytes   843,762 bytes   00:36:08.749    
8               0:39:06.135     0:04:21.552     22,743 kbps     33,772 kbps     00:39:28.032    28,076 kbps     00:42:29.964    27,473 kbps     00:42:49.441    118,574 bytes   590,943 bytes   00:39:38.542    
9               0:43:27.688     0:03:39.677     23,091 kbps     31,588 kbps     00:46:13.645    28,085 kbps     00:46:13.854    27,310 kbps     00:46:45.677    120,384 bytes   531,324 bytes   00:46:48.096    
10              0:47:07.366     0:02:38.825     20,108 kbps     29,389 kbps     00:47:12.371    25,278 kbps     00:47:15.123    24,371 kbps     00:47:10.035    104,836 bytes   679,154 bytes   00:49:16.703    
11              0:49:46.191     0:10:08.607     21,558 kbps     33,757 kbps     00:53:52.437    28,712 kbps     00:53:50.018    26,992 kbps     00:53:45.513    112,392 bytes   747,604 bytes   00:50:18.306    
12              0:59:54.799     0:04:51.582     24,309 kbps     36,329 kbps     01:03:06.365    28,545 kbps     01:03:25.760    27,809 kbps     00:59:55.466    126,734 bytes   586,646 bytes   01:00:43.931    
13              1:04:46.382     0:04:40.780     21,778 kbps     30,292 kbps     01:06:51.173    28,030 kbps     01:06:48.546    27,229 kbps     01:06:43.624    113,539 bytes   504,924 bytes   01:07:51.692    
14              1:09:27.162     0:03:10.023     22,880 kbps     31,736 kbps     01:12:00.441    28,221 kbps     01:11:55.769    27,413 kbps     01:12:04.028    119,287 bytes   541,646 bytes   01:12:30.721    
15              1:12:37.186     0:10:47.855     23,471 kbps     33,279 kbps     01:12:59.124    28,564 kbps     01:16:27.749    27,685 kbps     01:16:27.124    122,368 bytes   606,440 bytes   01:12:42.191    
16              1:23:25.041     0:05:28.453     21,702 kbps     31,560 kbps     01:28:28.303    27,857 kbps     01:28:44.569    27,177 kbps     01:28:40.231    113,142 bytes   611,327 bytes   01:26:19.007    
17              1:28:53.494     0:08:59.497     20,618 kbps     32,667 kbps     01:29:02.879    27,075 kbps     01:37:06.195    24,653 kbps     01:36:49.929    107,493 bytes   982,061 bytes   01:37:04.652    
18              1:37:52.992     0:00:01.001     93 kbps         0 kbps          00:00:00.000    0 kbps          00:00:00.000    0 kbps          00:00:00.000    506 bytes       830 bytes       01:37:53.117    

STREAM DIAGNOSTICS:

File            PID             Type            Codec           Language                Seconds                 Bitrate                 Bytes           Packets         
----            ---             ----            -----           --------                --------------          --------------          -------------   -----           
00000.M2TS      4113 (0x1011)   0x1B            AVC                                     5872.909                22,114                  16,234,181,892  88,312,049      
00000.M2TS      4352 (0x1100)   0x81            AC3             deu (German)            5872.909                641                     470,228,480     2,755,259       
00000.M2TS      4353 (0x1101)   0x83            TrueHD          eng (English)           5872.909                4,110                   3,017,505,054   20,688,088      
00000.M2TS      4354 (0x1102)   0x81            AC3             spa (Spanish)           5872.909                641                     470,551,040     2,757,135       
00000.M2TS      4355 (0x1103)   0x81            AC3             fra (French)            5872.909                641                     470,755,840     2,758,335       
00000.M2TS      4356 (0x1104)   0x81            AC3             ita (Italian)           5872.909                641                     470,302,352     2,755,678       
00000.M2TS      4357 (0x1105)   0x81            AC3             kor (Korean)            5872.909                641                     470,231,040     2,755,260       
00000.M2TS      4358 (0x1106)   0x81            AC3             zho (Chinese)           5872.909                641                     470,551,040     2,757,135       
00000.M2TS      4359 (0x1107)   0x81            AC3             nld (Dutch)             5872.909                642                     471,470,080     2,762,520       
00000.M2TS      4360 (0x1108)   0x81            AC3             por (Portuguese)        5872.909                641                     470,456,320     2,756,580       
00000.M2TS      4361 (0x1109)   0x81            AC3             rus (Russian)           5872.909                641                     470,289,920     2,755,605       
00000.M2TS      4362 (0x110A)   0x81            AC3             tur (Turkish)           5872.909                641                     470,550,856     2,757,134       
00000.M2TS      4608 (0x1200)   0x90            PGS             deu (German)            5872.909                0                       20,982          121             
00000.M2TS      4609 (0x1201)   0x90            PGS             spa (Spanish)           5872.909                0                       17,549          102             
00000.M2TS      4610 (0x1202)   0x90            PGS             fra (French)            5872.909                0                       8,386           53              
00000.M2TS      4611 (0x1203)   0x90            PGS             ita (Italian)           5872.909                0                       8,386           53              
00000.M2TS      4612 (0x1204)   0x90            PGS             kor (Korean)            5872.909                0                       10,654          64              
00000.M2TS      4613 (0x1205)   0x90            PGS             zho (Chinese)           5872.909                0                       8,736           54              
00000.M2TS      4614 (0x1206)   0x90            PGS             nld (Dutch)             5872.909                0                       15,229          90              
00000.M2TS      4615 (0x1207)   0x90            PGS             por (Portuguese)        5872.909                0                       21,896          126             
00000.M2TS      4616 (0x1208)   0x90            PGS             rus (Russian)           5872.909                0                       19,330          112             
00000.M2TS      4617 (0x1209)   0x90            PGS             tur (Turkish)           5872.909                0                       16,810          98              
00094.M2TS      4113 (0x1011)   0x1B            AVC                                     0.918                   110                     12,567          77              

[/code]
<---- END FORUMS PASTE ---->

QUICK SUMMARY:

Disc Title: HOW TO TRAIN YOUR DRAGON 3D
Disc Label: Drachenzaehmen.leichtgemacht.3D.2010.3DBD.complete.Bluray.untouched.german.ML.mvc-HDA
Disc Size: 33,787,467,204 bytes
Protection: AACS
Playlist: 01000.MPLS
Size: 26,304,989,184 bytes
Length: 1:37:53.993
Total Bitrate: 35.83 Mbps
Video: MPEG-4 AVC Video / 22110 kbps / 1080p / 23.976 fps / 16:9 / High Profile 4.1
Audio: German / Dolby Digital Audio / 5.1 / 48 kHz /   640 kbps / DN -27dB
Audio: English / Dolby TrueHD Audio / 7.1 / 48 kHz /  3470 kbps / 16-bit (AC3 Embedded: 5.1 / 48 kHz /   640 kbps / DN -31dB)
Audio: Spanish / Dolby Digital Audio / 5.1 / 48 kHz /   640 kbps / DN -27dB
Audio: French / Dolby Digital Audio / 5.1 / 48 kHz /   640 kbps / DN -27dB
Audio: Italian / Dolby Digital Audio / 5.1 / 48 kHz /   640 kbps / DN -27dB
Audio: Korean / Dolby Digital Audio / 5.1 / 48 kHz /   640 kbps / DN -27dB
Audio: Chinese / Dolby Digital Audio / 5.1 / 48 kHz /   640 kbps / DN -27dB
Audio: Dutch / Dolby Digital Audio / 5.1 / 48 kHz /   640 kbps / DN -27dB
Audio: Portuguese / Dolby Digital Audio / 5.1 / 48 kHz /   640 kbps / DN -27dB
Audio: Russian / Dolby Digital Audio / 5.1 / 48 kHz /   640 kbps / DN -27dB
Audio: Turkish / Dolby Digital Audio / 5.1 / 48 kHz /   640 kbps / DN -27dB
Subtitle: German / 0.029 kbps
Subtitle: Spanish / 0.024 kbps
Subtitle: French / 0.011 kbps
Subtitle: Italian / 0.011 kbps
Subtitle: Korean / 0.015 kbps
Subtitle: Chinese / 0.012 kbps
Subtitle: Dutch / 0.021 kbps
Subtitle: Portuguese / 0.030 kbps
Subtitle: Russian / 0.026 kbps
Subtitle: Turkish / 0.023 kbps


********************
PLAYLIST: 01500.MPLS
********************

<--- BEGIN FORUMS PASTE --->
[code]
                                                                                                                Total   Video                                             
Title                                                           Codec   Length  Movie Size      Disc Size       Bitrate Bitrate Main Audio Track                          Secondary Audio Track
-----                                                           ------  ------- --------------  --------------  ------- ------- ------------------                        ---------------------
01500.MPLS                                                      AVC     1:37:53 26,304,989,184  33,787,467,204  35.83   22.11   DD AC3 5.1 640Kbps                        
[/code]

[code]

DISC INFO:

Disc Title:     HOW TO TRAIN YOUR DRAGON 3D
Disc Label:     Drachenzaehmen.leichtgemacht.3D.2010.3DBD.complete.Bluray.untouched.german.ML.mvc-HDA
Disc Size:      33,787,467,204 bytes
Protection:     AACS
Extras:         BD-Java
BDInfo:         0.7.5.5

PLAYLIST REPORT:

Name:                   01500.MPLS
Length:                 1:37:53.993 (h:m:s.ms)
Size:                   26,304,989,184 bytes
Total Bitrate:          35.83 Mbps

VIDEO:

Codec                   Bitrate             Description     
-----                   -------             -----------     
MPEG-4 AVC Video        22110 kbps          1080p / 23.976 fps / 16:9 / High Profile 4.1

AUDIO:

Codec                           Language        Bitrate         Description     
-----                           --------        -------         -----------     
Dolby Digital Audio             German          640 kbps        5.1 / 48 kHz /   640 kbps / DN -27dB
Dolby TrueHD Audio              English         4110 kbps       7.1 / 48 kHz /  3470 kbps / 16-bit (AC3 Embedded: 5.1 / 48 kHz /   640 kbps / DN -31dB)
Dolby Digital Audio             Spanish         640 kbps        5.1 / 48 kHz /   640 kbps / DN -27dB
Dolby Digital Audio             French          640 kbps        5.1 / 48 kHz /   640 kbps / DN -27dB
Dolby Digital Audio             Italian         640 kbps        5.1 / 48 kHz /   640 kbps / DN -27dB
Dolby Digital Audio             Korean          640 kbps        5.1 / 48 kHz /   640 kbps / DN -27dB
Dolby Digital Audio             Chinese         640 kbps        5.1 / 48 kHz /   640 kbps / DN -27dB
Dolby Digital Audio             Dutch           640 kbps        5.1 / 48 kHz /   640 kbps / DN -27dB
Dolby Digital Audio             Portuguese      640 kbps        5.1 / 48 kHz /   640 kbps / DN -27dB
Dolby Digital Audio             Russian         640 kbps        5.1 / 48 kHz /   640 kbps / DN -27dB
Dolby Digital Audio             Turkish         640 kbps        5.1 / 48 kHz /   640 kbps / DN -27dB

SUBTITLES:

Codec                           Language        Bitrate         Description     
-----                           --------        -------         -----------     
Presentation Graphics           German          0.029 kbps                      
Presentation Graphics           Spanish         0.024 kbps                      
Presentation Graphics           French          0.011 kbps                      
Presentation Graphics           Italian         0.011 kbps                      
Presentation Graphics           Korean          0.015 kbps                      
Presentation Graphics           Chinese         0.012 kbps                      
Presentation Graphics           Dutch           0.021 kbps                      
Presentation Graphics           Portuguese      0.030 kbps                      
Presentation Graphics           Russian         0.026 kbps                      
Presentation Graphics           Turkish         0.023 kbps                      

FILES:

Name            Time In         Length          Size            Total Bitrate   
----            -------         ------          ----            -------------   
00000.M2TS      0:00:00.000     1:37:52.992     26,304,872,448  35,832          
00094.M2TS      1:37:52.992     0:00:01.001     116,736         933             

CHAPTERS:

Number          Time In         Length          Avg Video Rate  Max 1-Sec Rate  Max 1-Sec Time  Max 5-Sec Rate  Max 5-Sec Time  Max 10Sec Rate  Max 10Sec Time  Avg Frame Size  Max Frame Size  Max Frame Time  
------          -------         ------          --------------  --------------  --------------  --------------  --------------  --------------  --------------  --------------  --------------  --------------  
1               0:00:00.000     0:08:38.768     21,689 kbps     32,501 kbps     00:05:42.467    28,568 kbps     00:05:42.467    26,824 kbps     00:05:36.961    113,066 bytes   472,096 bytes   00:02:28.439    
2               0:08:38.768     0:02:52.213     22,025 kbps     31,898 kbps     00:09:38.494    28,393 kbps     00:09:35.283    27,058 kbps     00:09:34.782    114,830 bytes   520,032 bytes   00:09:24.981    
3               0:11:30.981     0:03:39.052     21,445 kbps     29,426 kbps     00:12:11.522    27,394 kbps     00:12:14.984    27,041 kbps     00:12:11.313    111,807 bytes   715,273 bytes   00:15:09.325    
4               0:15:10.034     0:06:46.030     22,962 kbps     31,322 kbps     00:18:18.097    28,697 kbps     00:17:44.521    28,231 kbps     00:17:44.396    119,714 bytes   732,684 bytes   00:20:35.359    
5               0:21:56.064     0:05:44.635     22,637 kbps     32,005 kbps     00:25:56.555    28,701 kbps     00:26:55.238    27,323 kbps     00:26:41.349    118,021 bytes   699,755 bytes   00:24:52.324    
6               0:27:40.700     0:05:32.498     19,885 kbps     31,147 kbps     00:29:10.206    26,874 kbps     00:29:58.296    24,657 kbps     00:30:21.694    103,672 bytes   980,317 bytes   00:27:52.462    
7               0:33:13.199     0:05:52.935     22,813 kbps     33,764 kbps     00:37:00.760    28,412 kbps     00:37:16.859    27,305 kbps     00:38:09.161    118,939 bytes   843,762 bytes   00:36:08.749    
8               0:39:06.135     0:04:21.552     22,743 kbps     33,772 kbps     00:39:28.032    28,076 kbps     00:42:29.964    27,473 kbps     00:42:49.441    118,574 bytes   590,943 bytes   00:39:38.542    
9               0:43:27.688     0:03:39.677     23,091 kbps     31,588 kbps     00:46:13.645    28,085 kbps     00:46:13.854    27,310 kbps     00:46:45.677    120,384 bytes   531,324 bytes   00:46:48.096    
10              0:47:07.366     0:02:38.825     20,108 kbps     29,389 kbps     00:47:12.371    25,278 kbps     00:47:15.123    24,371 kbps     00:47:10.035    104,836 bytes   679,154 bytes   00:49:16.703    
11              0:49:46.191     0:10:08.607     21,558 kbps     33,757 kbps     00:53:52.437    28,712 kbps     00:53:50.018    26,992 kbps     00:53:45.513    112,392 bytes   747,604 bytes   00:50:18.306    
12              0:59:54.799     0:04:51.582     24,309 kbps     36,329 kbps     01:03:06.365    28,545 kbps     01:03:25.760    27,809 kbps     00:59:55.466    126,734 bytes   586,646 bytes   01:00:43.931    
13              1:04:46.382     0:04:40.780     21,778 kbps     30,292 kbps     01:06:51.173    28,030 kbps     01:06:48.546    27,229 kbps     01:06:43.624    113,539 bytes   504,924 bytes   01:07:51.692    
14              1:09:27.162     0:03:10.023     22,880 kbps     31,736 kbps     01:12:00.441    28,221 kbps     01:11:55.769    27,413 kbps     01:12:04.028    119,287 bytes   541,646 bytes   01:12:30.721    
15              1:12:37.186     0:10:47.855     23,471 kbps     33,279 kbps     01:12:59.124    28,564 kbps     01:16:27.749    27,685 kbps     01:16:27.124    122,368 bytes   606,440 bytes   01:12:42.191    
16              1:23:25.041     0:05:28.453     21,702 kbps     31,560 kbps     01:28:28.303    27,857 kbps     01:28:44.569    27,177 kbps     01:28:40.231    113,142 bytes   611,327 bytes   01:26:19.007    
17              1:28:53.494     0:08:59.497     20,618 kbps     32,667 kbps     01:29:02.879    27,075 kbps     01:37:06.195    24,653 kbps     01:36:49.929    107,493 bytes   982,061 bytes   01:37:04.652    
18              1:37:52.992     0:00:01.001     93 kbps         0 kbps          00:00:00.000    0 kbps          00:00:00.000    0 kbps          00:00:00.000    506 bytes       830 bytes       01:37:53.117    

STREAM DIAGNOSTICS:

File            PID             Type            Codec           Language                Seconds                 Bitrate                 Bytes           Packets         
----            ---             ----            -----           --------                --------------          --------------          -------------   -----           
00000.M2TS      4113 (0x1011)   0x1B            AVC                                     5872.909                22,114                  16,234,181,892  88,312,049      
00000.M2TS      4352 (0x1100)   0x81            AC3             deu (German)            5872.909                641                     470,228,480     2,755,259       
00000.M2TS      4353 (0x1101)   0x83            TrueHD          eng (English)           5872.909                4,110                   3,017,505,054   20,688,088      
00000.M2TS      4354 (0x1102)   0x81            AC3             spa (Spanish)           5872.909                641                     470,551,040     2,757,135       
00000.M2TS      4355 (0x1103)   0x81            AC3             fra (French)            5872.909                641                     470,755,840     2,758,335       
00000.M2TS      4356 (0x1104)   0x81            AC3             ita (Italian)           5872.909                641                     470,302,352     2,755,678       
00000.M2TS      4357 (0x1105)   0x81            AC3             kor (Korean)            5872.909                641                     470,231,040     2,755,260       
00000.M2TS      4358 (0x1106)   0x81            AC3             zho (Chinese)           5872.909                641                     470,551,040     2,757,135       
00000.M2TS      4359 (0x1107)   0x81            AC3             nld (Dutch)             5872.909                642                     471,470,080     2,762,520       
00000.M2TS      4360 (0x1108)   0x81            AC3             por (Portuguese)        5872.909                641                     470,456,320     2,756,580       
00000.M2TS      4361 (0x1109)   0x81            AC3             rus (Russian)           5872.909                641                     470,289,920     2,755,605       
00000.M2TS      4362 (0x110A)   0x81            AC3             tur (Turkish)           5872.909                641                     470,550,856     2,757,134       
00000.M2TS      4608 (0x1200)   0x90            PGS             deu (German)            5872.909                0                       20,982          121             
00000.M2TS      4609 (0x1201)   0x90            PGS             spa (Spanish)           5872.909                0                       17,549          102             
00000.M2TS      4610 (0x1202)   0x90            PGS             fra (French)            5872.909                0                       8,386           53              
00000.M2TS      4611 (0x1203)   0x90            PGS             ita (Italian)           5872.909                0                       8,386           53              
00000.M2TS      4612 (0x1204)   0x90            PGS             kor (Korean)            5872.909                0                       10,654          64              
00000.M2TS      4613 (0x1205)   0x90            PGS             zho (Chinese)           5872.909                0                       8,736           54              
00000.M2TS      4614 (0x1206)   0x90            PGS             nld (Dutch)             5872.909                0                       15,229          90              
00000.M2TS      4615 (0x1207)   0x90            PGS             por (Portuguese)        5872.909                0                       21,896          126             
00000.M2TS      4616 (0x1208)   0x90            PGS             rus (Russian)           5872.909                0                       19,330          112             
00000.M2TS      4617 (0x1209)   0x90            PGS             tur (Turkish)           5872.909                0                       16,810          98              
00094.M2TS      4113 (0x1011)   0x1B            AVC                                     0.918                   110                     12,567          77              

[/code]
<---- END FORUMS PASTE ---->

QUICK SUMMARY:

Disc Title: HOW TO TRAIN YOUR DRAGON 3D
Disc Label: Drachenzaehmen.leichtgemacht.3D.2010.3DBD.complete.Bluray.untouched.german.ML.mvc-HDA
Disc Size: 33,787,467,204 bytes
Protection: AACS
Playlist: 01500.MPLS
Size: 26,304,989,184 bytes
Length: 1:37:53.993
Total Bitrate: 35.83 Mbps
Video: MPEG-4 AVC Video / 22110 kbps / 1080p / 23.976 fps / 16:9 / High Profile 4.1
Audio: German / Dolby Digital Audio / 5.1 / 48 kHz /   640 kbps / DN -27dB
Audio: English / Dolby TrueHD Audio / 7.1 / 48 kHz /  3470 kbps / 16-bit (AC3 Embedded: 5.1 / 48 kHz /   640 kbps / DN -31dB)
Audio: Spanish / Dolby Digital Audio / 5.1 / 48 kHz /   640 kbps / DN -27dB
Audio: French / Dolby Digital Audio / 5.1 / 48 kHz /   640 kbps / DN -27dB
Audio: Italian / Dolby Digital Audio / 5.1 / 48 kHz /   640 kbps / DN -27dB
Audio: Korean / Dolby Digital Audio / 5.1 / 48 kHz /   640 kbps / DN -27dB
Audio: Chinese / Dolby Digital Audio / 5.1 / 48 kHz /   640 kbps / DN -27dB
Audio: Dutch / Dolby Digital Audio / 5.1 / 48 kHz /   640 kbps / DN -27dB
Audio: Portuguese / Dolby Digital Audio / 5.1 / 48 kHz /   640 kbps / DN -27dB
Audio: Russian / Dolby Digital Audio / 5.1 / 48 kHz /   640 kbps / DN -27dB
Audio: Turkish / Dolby Digital Audio / 5.1 / 48 kHz /   640 kbps / DN -27dB
Subtitle: German / 0.029 kbps
Subtitle: Spanish / 0.024 kbps
Subtitle: French / 0.011 kbps
Subtitle: Italian / 0.011 kbps
Subtitle: Korean / 0.015 kbps
Subtitle: Chinese / 0.012 kbps
Subtitle: Dutch / 0.021 kbps
Subtitle: Portuguese / 0.030 kbps
Subtitle: Russian / 0.026 kbps
Subtitle: Turkish / 0.023 kbps


********************
PLAYLIST: 00000.MPLS
********************

<--- BEGIN FORUMS PASTE --->
[code]
                                                                                                                Total   Video                                             
Title                                                           Codec   Length  Movie Size      Disc Size       Bitrate Bitrate Main Audio Track                          Secondary Audio Track
-----                                                           ------  ------- --------------  --------------  ------- ------- ------------------                        ---------------------
00000.MPLS                                                      AVC     1:37:52 26,304,872,448  33,787,467,204  35.83   22.11   DD AC3 5.1 640Kbps                        
[/code]

[code]

DISC INFO:

Disc Title:     HOW TO TRAIN YOUR DRAGON 3D
Disc Label:     Drachenzaehmen.leichtgemacht.3D.2010.3DBD.complete.Bluray.untouched.german.ML.mvc-HDA
Disc Size:      33,787,467,204 bytes
Protection:     AACS
Extras:         BD-Java
BDInfo:         0.7.5.5

PLAYLIST REPORT:

Name:                   00000.MPLS
Length:                 1:37:52.992 (h:m:s.ms)
Size:                   26,304,872,448 bytes
Total Bitrate:          35.83 Mbps

VIDEO:

Codec                   Bitrate             Description     
-----                   -------             -----------     
MPEG-4 AVC Video        22114 kbps          1080p / 23.976 fps / 16:9 / High Profile 4.1

AUDIO:

Codec                           Language        Bitrate         Description     
-----                           --------        -------         -----------     
Dolby Digital Audio             German          640 kbps        5.1 / 48 kHz /   640 kbps / DN -27dB
Dolby TrueHD Audio              English         4110 kbps       7.1 / 48 kHz /  3470 kbps / 16-bit (AC3 Embedded: 5.1 / 48 kHz /   640 kbps / DN -31dB)
Dolby Digital Audio             Spanish         640 kbps        5.1 / 48 kHz /   640 kbps / DN -27dB
Dolby Digital Audio             French          640 kbps        5.1 / 48 kHz /   640 kbps / DN -27dB
Dolby Digital Audio             Italian         640 kbps        5.1 / 48 kHz /   640 kbps / DN -27dB
Dolby Digital Audio             Korean          640 kbps        5.1 / 48 kHz /   640 kbps / DN -27dB
Dolby Digital Audio             Chinese         640 kbps        5.1 / 48 kHz /   640 kbps / DN -27dB
Dolby Digital Audio             Dutch           640 kbps        5.1 / 48 kHz /   640 kbps / DN -27dB
Dolby Digital Audio             Portuguese      640 kbps        5.1 / 48 kHz /   640 kbps / DN -27dB
Dolby Digital Audio             Russian         640 kbps        5.1 / 48 kHz /   640 kbps / DN -27dB
Dolby Digital Audio             Turkish         640 kbps        5.1 / 48 kHz /   640 kbps / DN -27dB

SUBTITLES:

Codec                           Language        Bitrate         Description     
-----                           --------        -------         -----------     
Presentation Graphics           German          0.029 kbps                      
Presentation Graphics           Spanish         0.024 kbps                      
Presentation Graphics           French          0.011 kbps                      
Presentation Graphics           Italian         0.011 kbps                      
Presentation Graphics           Korean          0.015 kbps                      
Presentation Graphics           Chinese         0.012 kbps                      
Presentation Graphics           Dutch           0.021 kbps                      
Presentation Graphics           Portuguese      0.030 kbps                      
Presentation Graphics           Russian         0.026 kbps                      
Presentation Graphics           Turkish         0.023 kbps                      

FILES:

Name            Time In         Length          Size            Total Bitrate   
----            -------         ------          ----            -------------   
00000.M2TS      0:00:00.000     1:37:52.992     26,304,872,448  35,832          

CHAPTERS:

Number          Time In         Length          Avg Video Rate  Max 1-Sec Rate  Max 1-Sec Time  Max 5-Sec Rate  Max 5-Sec Time  Max 10Sec Rate  Max 10Sec Time  Avg Frame Size  Max Frame Size  Max Frame Time  
------          -------         ------          --------------  --------------  --------------  --------------  --------------  --------------  --------------  --------------  --------------  --------------  
1               0:00:00.000     1:37:52.992     22,114 kbps     36,329 kbps     01:03:06.365    28,712 kbps     00:53:50.018    28,231 kbps     00:17:44.396    115,291 bytes   982,061 bytes   01:37:04.652    

STREAM DIAGNOSTICS:

File            PID             Type            Codec           Language                Seconds                 Bitrate                 Bytes           Packets         
----            ---             ----            -----           --------                --------------          --------------          -------------   -----           
00000.M2TS      4113 (0x1011)   0x1B            AVC                                     5872.909                22,114                  16,234,181,892  88,312,049      
00000.M2TS      4352 (0x1100)   0x81            AC3             deu (German)            5872.909                641                     470,228,480     2,755,259       
00000.M2TS      4353 (0x1101)   0x83            TrueHD          eng (English)           5872.909                4,110                   3,017,505,054   20,688,088      
00000.M2TS      4354 (0x1102)   0x81            AC3             spa (Spanish)           5872.909                641                     470,551,040     2,757,135       
00000.M2TS      4355 (0x1103)   0x81            AC3             fra (French)            5872.909                641                     470,755,840     2,758,335       
00000.M2TS      4356 (0x1104)   0x81            AC3             ita (Italian)           5872.909                641                     470,302,352     2,755,678       
00000.M2TS      4357 (0x1105)   0x81            AC3             kor (Korean)            5872.909                641                     470,231,040     2,755,260       
00000.M2TS      4358 (0x1106)   0x81            AC3             zho (Chinese)           5872.909                641                     470,551,040     2,757,135       
00000.M2TS      4359 (0x1107)   0x81            AC3             nld (Dutch)             5872.909                642                     471,470,080     2,762,520       
00000.M2TS      4360 (0x1108)   0x81            AC3             por (Portuguese)        5872.909                641                     470,456,320     2,756,580       
00000.M2TS      4361 (0x1109)   0x81            AC3             rus (Russian)           5872.909                641                     470,289,920     2,755,605       
00000.M2TS      4362 (0x110A)   0x81            AC3             tur (Turkish)           5872.909                641                     470,550,856     2,757,134       
00000.M2TS      4608 (0x1200)   0x90            PGS             deu (German)            5872.909                0                       20,982          121             
00000.M2TS      4609 (0x1201)   0x90            PGS             spa (Spanish)           5872.909                0                       17,549          102             
00000.M2TS      4610 (0x1202)   0x90            PGS             fra (French)            5872.909                0                       8,386           53              
00000.M2TS      4611 (0x1203)   0x90            PGS             ita (Italian)           5872.909                0                       8,386           53              
00000.M2TS      4612 (0x1204)   0x90            PGS             kor (Korean)            5872.909                0                       10,654          64              
00000.M2TS      4613 (0x1205)   0x90            PGS             zho (Chinese)           5872.909                0                       8,736           54              
00000.M2TS      4614 (0x1206)   0x90            PGS             nld (Dutch)             5872.909                0                       15,229          90              
00000.M2TS      4615 (0x1207)   0x90            PGS             por (Portuguese)        5872.909                0                       21,896          126             
00000.M2TS      4616 (0x1208)   0x90            PGS             rus (Russian)           5872.909                0                       19,330          112             
00000.M2TS      4617 (0x1209)   0x90            PGS             tur (Turkish)           5872.909                0                       16,810          98              

[/code]
<---- END FORUMS PASTE ---->

QUICK SUMMARY:

Disc Title: HOW TO TRAIN YOUR DRAGON 3D
Disc Label: Drachenzaehmen.leichtgemacht.3D.2010.3DBD.complete.Bluray.untouched.german.ML.mvc-HDA
Disc Size: 33,787,467,204 bytes
Protection: AACS
Playlist: 00000.MPLS
Size: 26,304,872,448 bytes
Length: 1:37:52.992
Total Bitrate: 35.83 Mbps
Video: MPEG-4 AVC Video / 22114 kbps / 1080p / 23.976 fps / 16:9 / High Profile 4.1
Audio: German / Dolby Digital Audio / 5.1 / 48 kHz /   640 kbps / DN -27dB
Audio: English / Dolby TrueHD Audio / 7.1 / 48 kHz /  3470 kbps / 16-bit (AC3 Embedded: 5.1 / 48 kHz /   640 kbps / DN -31dB)
Audio: Spanish / Dolby Digital Audio / 5.1 / 48 kHz /   640 kbps / DN -27dB
Audio: French / Dolby Digital Audio / 5.1 / 48 kHz /   640 kbps / DN -27dB
Audio: Italian / Dolby Digital Audio / 5.1 / 48 kHz /   640 kbps / DN -27dB
Audio: Korean / Dolby Digital Audio / 5.1 / 48 kHz /   640 kbps / DN -27dB
Audio: Chinese / Dolby Digital Audio / 5.1 / 48 kHz /   640 kbps / DN -27dB
Audio: Dutch / Dolby Digital Audio / 5.1 / 48 kHz /   640 kbps / DN -27dB
Audio: Portuguese / Dolby Digital Audio / 5.1 / 48 kHz /   640 kbps / DN -27dB
Audio: Russian / Dolby Digital Audio / 5.1 / 48 kHz /   640 kbps / DN -27dB
Audio: Turkish / Dolby Digital Audio / 5.1 / 48 kHz /   640 kbps / DN -27dB
Subtitle: German / 0.029 kbps
Subtitle: Spanish / 0.024 kbps
Subtitle: French / 0.011 kbps
Subtitle: Italian / 0.011 kbps
Subtitle: Korean / 0.015 kbps
Subtitle: Chinese / 0.012 kbps
Subtitle: Dutch / 0.021 kbps
Subtitle: Portuguese / 0.030 kbps
Subtitle: Russian / 0.026 kbps
Subtitle: Turkish / 0.023 kbps

